<svg width="32" height="32" viewBox="0 0 32 32" fill="none" xmlns="http://www.w3.org/2000/svg">
  <!-- Background -->
  <rect width="32" height="32" rx="8" fill="#1a1a1a"/>
  
  <!-- Outer wheel ring -->
  <circle cx="16" cy="16" r="14" fill="none" stroke="#00ff88" stroke-width="2" opacity="0.8"/>
  
  <!-- Inner wheel sections -->
  <g transform="rotate(0 16 16)">
    <path d="M16 2 A14 14 0 0 1 22.5 8.5 L16 16 Z" fill="#00ff88" opacity="0.3"/>
  </g>
  <g transform="rotate(45 16 16)">
    <path d="M16 2 A14 14 0 0 1 22.5 8.5 L16 16 Z" fill="#00ff88" opacity="0.3"/>
  </g>
  <g transform="rotate(90 16 16)">
    <path d="M16 2 A14 14 0 0 1 22.5 8.5 L16 16 Z" fill="#00ff88" opacity="0.3"/>
  </g>
  <g transform="rotate(135 16 16)">
    <path d="M16 2 A14 14 0 0 1 22.5 8.5 L16 16 Z" fill="#00ff88" opacity="0.3"/>
  </g>
  <g transform="rotate(180 16 16)">
    <path d="M16 2 A14 14 0 0 1 22.5 8.5 L16 16 Z" fill="#00ff88" opacity="0.3"/>
  </g>
  <g transform="rotate(225 16 16)">
    <path d="M16 2 A14 14 0 0 1 22.5 8.5 L16 16 Z" fill="#00ff88" opacity="0.3"/>
  </g>
  <g transform="rotate(270 16 16)">
    <path d="M16 2 A14 14 0 0 1 22.5 8.5 L16 16 Z" fill="#00ff88" opacity="0.3"/>
  </g>
  <g transform="rotate(315 16 16)">
    <path d="M16 2 A14 14 0 0 1 22.5 8.5 L16 16 Z" fill="#00ff88" opacity="0.3"/>
  </g>
  
  <!-- Center hub -->
  <circle cx="16" cy="16" r="6" fill="#1a1a1a" stroke="#00ff88" stroke-width="1.5"/>
  
  <!-- Center dot -->
  <circle cx="16" cy="16" r="2" fill="#00ff88"/>
  
  <!-- Pointer -->
  <polygon points="16,4 18,8 14,8" fill="#00ff88" opacity="0.8"/>
</svg>
